<?xml version="1.0" encoding="UTF-8"?>
<svg id="Camada_2" data-name="Camada 2" xmlns="http://www.w3.org/2000/svg" viewBox="0 0 1080 1080">
  <defs>
    <style>
      .cls-1 {
        fill: #fff;
      }

      .cls-2 {
        fill: #1d1d1b;
      }
    </style>
  </defs>
  <circle class="cls-2" cx="540" cy="540" r="492.89"/>
  <path class="cls-1" d="M864.86,724.1l-77.17-133.66c5.35-4.11,10.47-8.59,15.33-13.45,29.18-29.18,45.25-67.98,45.25-109.24,0-41.27-16.07-80.06-45.25-109.25-29.18-29.18-67.98-45.25-109.24-45.25,0,0,0,0,0,0-20.99,0-41.02,4.22-59.28,11.84l-77.18-133.68h-34.62s-77.18,133.68-77.18,133.68c-18.26-7.62-38.29-11.83-59.28-11.84,0,0,0,0,0,0-41.26,0-80.06,16.07-109.24,45.25-29.18,29.18-45.25,67.98-45.25,109.24,0,41.27,16.07,80.06,45.25,109.25,4.85,4.85,9.98,9.34,15.33,13.45l-77.17,133.66,17.31,29.98h154.35c9.83,75.78,74.79,134.51,153.2,134.51h0c41.26,0,80.06-16.07,109.24-45.25,24.42-24.42,39.65-55.57,43.97-89.26h154.34s17.31-29.98,17.31-29.98Zm-171.08-370.88c30.59,0,59.35,11.91,80.98,33.54,21.63,21.63,33.54,50.39,33.54,80.98s-11.91,59.35-33.54,80.98c-2.34,2.34-4.79,4.55-7.29,6.67l-112.78-195.34c12.37-4.48,25.55-6.83,39.1-6.83Zm-153.78,226.37h0c-22.29,0-43.85,4.7-63.57,13.6,6.71-4.84,13.08-10.25,19.04-16.21,25.61-25.61,41.12-58.63,44.53-94.22,3.41,35.59,18.92,68.61,44.53,94.22,5.96,5.96,12.33,11.37,19.04,16.21-19.72-8.91-41.28-13.6-63.57-13.6Zm80.98,73.52c16.84,16.84,27.75,38.01,31.78,60.99h-225.52c4.02-22.98,14.94-44.15,31.78-60.99,21.63-21.63,50.39-33.54,80.98-33.54,30.59,0,59.35,11.91,80.98,33.54Zm-153.78-266.35c21.63,21.63,33.54,50.39,33.54,80.98,0,30.59-11.91,59.35-33.54,80.98-21.63,21.63-50.39,33.54-80.98,33.54-13.55,0-26.73-2.35-39.1-6.83l112.78-195.34c2.51,2.11,4.95,4.32,7.3,6.67Zm112.05,80.98c0-30.59,11.91-59.35,33.54-80.98,2.34-2.34,4.79-4.55,7.29-6.67l112.78,195.34c-12.37,4.48-25.55,6.83-39.1,6.83-30.59,0-59.35-11.91-80.98-33.54-21.63-21.63-33.54-50.39-33.54-80.98Zm-39.26-226.37l59.9,103.76c-33.12,25.42-55.7,63.93-59.9,107.73-4.21-43.8-26.78-82.31-59.9-107.73l59.9-103.76Zm-234.76,307.35c-21.63-21.63-33.54-50.39-33.54-80.98,0-30.59,11.91-59.35,33.54-80.98,21.63-21.63,50.39-33.54,80.98-33.54,13.55,0,26.73,2.35,39.1,6.83l-112.78,195.34c-2.51-2.11-4.95-4.32-7.3-6.67Zm21.65,61.76c18.55,7.71,38.63,11.76,59.33,11.76h0c22.29,0,43.85-4.7,63.57-13.6-6.71,4.84-13.08,10.25-19.04,16.21-24.42,24.41-39.65,55.57-43.97,89.26h-119.72s59.83-103.62,59.83-103.62Zm294.08,204.59c-21.63,21.63-50.39,33.54-80.98,33.54-30.59,0-59.35-11.91-80.98-33.54-16.84-16.84-27.75-38.01-31.78-60.99h225.52c-4.02,22.98-14.94,44.15-31.78,60.99Zm72.24-100.97c-4.33-33.69-19.55-64.84-43.97-89.26-5.96-5.96-12.33-11.37-19.04-16.21,19.72,8.91,41.28,13.6,63.57,13.6h0c20.7,0,40.77-4.05,59.33-11.76l59.83,103.62h-119.72Z"/>
</svg>