<?xml version="1.0" encoding="UTF-8"?>
<svg id="Camada_2" data-name="Camada 2" xmlns="http://www.w3.org/2000/svg" viewBox="0 0 1080 1080">
  <defs>
    <style>
      .cls-1 {
        fill: #fff;
      }
    </style>
  </defs>
  <path class="cls-1" d="M791.92,516.81l-59.84-103.65c4.15-3.19,8.12-6.66,11.89-10.43,22.63-22.63,35.09-52.71,35.09-84.72,0-32-12.46-62.09-35.09-84.72-22.63-22.63-52.71-35.09-84.72-35.09,0,0,0,0,0,0-16.28,0-31.81,3.27-45.97,9.18l-59.85-103.67h-26.85s-59.85,103.67-59.85,103.67c-14.16-5.91-29.69-9.18-45.97-9.18,0,0,0,0,0,0-32,0-62.09,12.46-84.72,35.09-22.63,22.63-35.09,52.71-35.09,84.72,0,32,12.46,62.09,35.09,84.72,3.76,3.76,7.74,7.24,11.89,10.43l-59.84,103.65,13.42,23.25h119.69c7.62,58.77,58,104.31,118.81,104.31h0c32,0,62.09-12.46,84.71-35.09,18.93-18.93,30.74-43.09,34.1-69.22h119.68s13.42-23.25,13.42-23.25Zm-132.67-287.61c23.72,0,46.02,9.24,62.8,26.01,16.77,16.77,26.01,39.08,26.01,62.8s-9.24,46.02-26.01,62.8c-1.82,1.82-3.71,3.53-5.66,5.17l-87.46-151.48c9.59-3.48,19.82-5.29,30.32-5.29Zm-119.25,175.55h0c-17.28,0-34,3.64-49.3,10.55,5.2-3.76,10.14-7.95,14.76-12.57,19.86-19.86,31.89-45.46,34.53-73.06,2.65,27.6,14.67,53.2,34.53,73.06,4.62,4.62,9.56,8.82,14.76,12.57-15.29-6.91-32.01-10.55-49.29-10.55Zm62.8,57.01c13.06,13.06,21.52,29.47,24.64,47.3h-174.88c3.12-17.82,11.59-34.24,24.65-47.3,16.77-16.77,39.08-26.01,62.8-26.01s46.02,9.24,62.8,26.01Zm-119.25-206.55c16.77,16.77,26.01,39.08,26.01,62.8,0,23.72-9.24,46.02-26.01,62.8-16.77,16.77-39.08,26.01-62.8,26.01-10.5,0-20.73-1.82-30.32-5.29l87.46-151.48c1.94,1.64,3.84,3.35,5.66,5.17Zm86.89,62.8c0-23.72,9.24-46.02,26.01-62.8,1.82-1.82,3.71-3.53,5.66-5.17l87.46,151.48c-9.59,3.48-19.81,5.29-30.32,5.29-23.72,0-46.02-9.24-62.8-26.01-16.77-16.77-26.01-39.08-26.01-62.8Zm-30.44-175.55l46.45,80.46c-25.69,19.71-43.19,49.58-46.45,83.54-3.26-33.97-20.77-63.83-46.45-83.54l46.45-80.46Zm-182.05,238.34c-16.77-16.77-26.01-39.08-26.01-62.8,0-23.72,9.24-46.02,26.01-62.8s39.08-26.01,62.8-26.01c10.5,0,20.73,1.82,30.32,5.29l-87.46,151.48c-1.94-1.64-3.84-3.35-5.66-5.17Zm16.79,47.89c14.39,5.98,29.96,9.12,46.01,9.12h0c17.28,0,34-3.64,49.3-10.55-5.2,3.76-10.14,7.95-14.76,12.57-18.93,18.93-30.74,43.09-34.1,69.22h-92.84s46.39-80.36,46.39-80.36Zm228.05,158.65c-16.77,16.77-39.08,26.01-62.8,26.01s-46.02-9.24-62.8-26.01c-13.06-13.06-21.52-29.47-24.64-47.3h174.88c-3.12,17.82-11.59,34.24-24.65,47.3Zm56.02-78.3c-3.35-26.13-15.16-50.28-34.1-69.22-4.62-4.62-9.56-8.82-14.76-12.57,15.29,6.91,32.01,10.55,49.29,10.55h0c16.05,0,31.62-3.14,46.01-9.12l46.39,80.36h-92.84Z"/>
  <g>
    <g>
      <path class="cls-1" d="M386.11,787.75l-6.43-16.08h-43.77l-6.43,16.08h-29.37l43.91-97.89h27.97l43.77,97.89h-29.65Zm-15.8-39.29l-12.44-31.18-12.59,31.18h25.03Z"/>
      <path class="cls-1" d="M421.21,718.67h23.07l1.54,7.55c3.45-6.15,9.04-9.23,16.78-9.23s13.52,2.47,18.18,7.41l-10.35,18.6c-3.54-2.8-7.41-4.2-11.61-4.2-3.45,0-6.29,1.1-8.53,3.29-2.24,2.19-3.36,5.43-3.36,9.72v35.94h-25.73v-69.08Z"/>
      <path class="cls-1" d="M493.36,701.89l25.59-2.8v20h15.52v19.72h-15.66v22.65c.09,4.48,2.38,6.71,6.85,6.71,2.7,0,5.22-.79,7.55-2.38l5.59,19.02c-5.41,3.08-12.03,4.61-19.86,4.61s-13.98-2.14-18.74-6.43c-4.75-4.29-7.04-11.47-6.85-21.54v-22.65h-11.05v-19.72h11.05v-17.2Z"/>
      <path class="cls-1" d="M547.62,689.86h26.01v36.22c4.66-5.96,10.81-8.95,18.46-8.95s14.19,2.66,19.37,7.97c5.17,5.31,7.76,13.42,7.76,24.33v38.32h-25.59v-38.18c-.28-6.8-3.4-10.21-9.37-10.21-2.8,0-5.27,1.03-7.41,3.08-2.15,2.05-3.26,4.99-3.36,8.81v36.5h-25.87v-97.89Z"/>
      <path class="cls-1" d="M632.5,718.67h25.73v38.18c0,3.92,.93,6.81,2.8,8.67,1.86,1.87,4.15,2.8,6.85,2.8,3.36,0,6.17-1.07,8.46-3.22,2.28-2.14,3.43-5.36,3.43-9.65v-36.78h25.45v69.08h-22.79l-1.12-7.55c-5.41,6.34-12.68,9.41-21.81,9.23-8.11-.09-14.64-2.66-19.58-7.69-4.94-5.04-7.41-13.28-7.41-24.75v-38.32Z"/>
      <path class="cls-1" d="M720.32,718.67h23.07l1.54,7.55c3.45-6.15,9.04-9.23,16.78-9.23s13.52,2.47,18.18,7.41l-10.35,18.6c-3.54-2.8-7.41-4.2-11.61-4.2-3.45,0-6.29,1.1-8.53,3.29-2.24,2.19-3.36,5.43-3.36,9.72v35.94h-25.73v-69.08Z"/>
    </g>
    <g>
      <path class="cls-1" d="M282.28,925.54v1.68h-30.48l-22.79-31.74h-9.65v31.74h-27.69v-97.89h47.82c11.93,0,21.26,3.27,27.97,9.79,6.71,6.52,10.07,14.5,10.07,23.91,0,6.62-1.52,12.33-4.54,17.13-3.03,4.8-8.41,8.93-16.15,12.37l25.45,33Zm-42.79-74.11h-20.14v23.49h20.42c3.45,0,6.06-1.1,7.83-3.29,1.77-2.19,2.66-4.87,2.66-8.04,0-3.36-.93-6.22-2.8-8.6-1.87-2.38-4.52-3.57-7.97-3.57Z"/>
      <path class="cls-1" d="M324.51,856.59c11.09,0,20.44,3.08,28.04,9.23,7.6,6.15,11.4,15.15,11.4,26.99s-3.89,20.7-11.68,26.85c-7.79,6.15-17.04,9.23-27.76,9.23-5.13,0-10-.72-14.61-2.17-4.61-1.44-8.79-3.57-12.52-6.36-3.73-2.8-6.71-6.57-8.95-11.33-2.24-4.75-3.36-10.16-3.36-16.22,0-8.11,1.93-14.98,5.8-20.63,3.87-5.64,8.69-9.65,14.47-12.03,5.78-2.38,12.17-3.57,19.16-3.57Zm0,51.18c4.29,0,7.74-1.42,10.35-4.26,2.61-2.84,3.92-6.41,3.92-10.7s-1.28-7.76-3.85-10.7c-2.57-2.94-6.04-4.4-10.42-4.4s-7.85,1.47-10.42,4.4c-2.57,2.94-3.85,6.5-3.85,10.7s1.28,7.74,3.85,10.63c2.56,2.89,6.04,4.33,10.42,4.33Z"/>
      <path class="cls-1" d="M424.36,864.01v-34.68h25.73v97.89h-22.93l-1.12-7.41c-2.8,3.17-6.25,5.45-10.35,6.85-4.1,1.4-8.25,2-12.45,1.82-10.16-.65-17.97-4.06-23.42-10.21-5.45-6.15-8.18-14.68-8.18-25.59s3.1-19.3,9.3-26.01c6.2-6.71,14.29-10.07,24.26-10.07,8.76,0,15.15,2.47,19.16,7.41Zm-13.28,13.42c-4.01,0-7.32,1.38-9.93,4.13-2.61,2.75-3.92,6.46-3.92,11.12s1.3,8.34,3.92,11.05c2.61,2.7,5.92,4.05,9.93,4.05s7.43-1.44,10-4.33c2.56-2.89,3.85-6.24,3.85-10.07,0-4.47-1.21-8.25-3.64-11.33-2.42-3.08-5.83-4.61-10.21-4.61Z"/>
      <path class="cls-1" d="M465.19,858.13h23.07l1.54,7.55c3.45-6.15,9.04-9.23,16.78-9.23s13.52,2.47,18.18,7.41l-10.35,18.6c-3.54-2.79-7.41-4.19-11.61-4.19-3.45,0-6.29,1.1-8.53,3.29s-3.36,5.43-3.36,9.72v35.94h-25.73v-69.08Z"/>
      <path class="cls-1" d="M529.65,840.37c0-4.1,1.44-7.29,4.34-9.58,2.89-2.28,6.29-3.43,10.21-3.43s7.29,1.14,10.14,3.43c2.84,2.29,4.26,5.48,4.26,9.58s-1.45,7.16-4.34,9.44c-2.89,2.29-6.25,3.43-10.07,3.43s-7.32-1.14-10.21-3.43c-2.89-2.28-4.34-5.43-4.34-9.44Zm1.54,86.84h25.87v-67.96h-25.87v67.96Z"/>
      <path class="cls-1" d="M569.37,932.11h24.19c-.19,8.76,4.15,13.14,13.01,13.14,3.64,0,6.66-.86,9.09-2.59,2.42-1.73,3.64-4.17,3.64-7.34,0-6.15-4.15-9.23-12.45-9.23-11.65,0-20.98-3.15-27.97-9.44-6.99-6.29-10.49-14.75-10.49-25.38s3.66-19.18,10.98-25.66c7.32-6.48,16.48-9.72,27.48-9.72,4.66,0,9.42,.89,14.26,2.66,.65-.84,1.84-2.35,3.57-4.54,1.72-2.19,3.01-3.85,3.85-4.96l18.6,13.28-8.95,10.63c4.66,5.22,6.85,11.42,6.57,18.6-.19,9.32-4.38,16.97-12.59,22.93,9.04,5.13,13.56,12.08,13.56,20.84,0,5.41-1.1,10.14-3.29,14.19-2.19,4.06-5.17,7.25-8.95,9.58-3.77,2.33-7.92,4.08-12.44,5.25-4.52,1.16-9.35,1.75-14.47,1.75-12.31,0-21.77-3.01-28.39-9.02-6.62-6.01-9.56-14.33-8.81-24.96Zm37.48-55.1c-3.92,0-7.13,1.26-9.65,3.77-2.52,2.52-3.78,6.01-3.78,10.49,0,4.01,1.28,7.27,3.85,9.79,2.56,2.52,5.76,3.77,9.58,3.77s6.71-1.17,9.23-3.5c2.52-2.33,3.78-5.68,3.78-10.07,0-4.01-1.24-7.39-3.71-10.14-2.47-2.75-5.57-4.12-9.3-4.12Z"/>
      <path class="cls-1" d="M657.32,858.13h25.73v38.18c0,3.92,.93,6.81,2.8,8.67,1.86,1.86,4.15,2.79,6.85,2.79,3.36,0,6.17-1.07,8.46-3.22,2.28-2.14,3.43-5.36,3.43-9.65v-36.78h25.45v69.08h-22.79l-1.12-7.55c-5.41,6.34-12.68,9.41-21.81,9.23-8.11-.1-14.64-2.66-19.58-7.69-4.94-5.03-7.41-13.28-7.41-24.75v-38.31Z"/>
      <path class="cls-1" d="M779.82,856.45c12.68,0,22.54,3.94,29.58,11.82,7.04,7.88,9.11,18.44,6.22,31.67h-48.24c.84,2.8,2.8,4.97,5.87,6.5,3.08,1.54,6.25,2.31,9.51,2.31,6.9,0,12.82-1.86,17.76-5.59l12.59,14.12c-8.2,7.64-18.69,11.47-31.46,11.47-11.75,0-21.4-3.01-28.95-9.02-7.55-6.01-11.33-14.98-11.33-26.92s3.82-20.74,11.47-26.99c7.64-6.24,16.64-9.37,26.99-9.37Zm-12.31,26.99h25.03c-.19-3.45-2.24-5.9-6.15-7.34-3.92-1.44-7.9-1.47-11.96-.07-4.05,1.4-6.36,3.87-6.92,7.41Z"/>
      <path class="cls-1" d="M822.75,919.94l8.39-18.74c7.18,4.66,15.33,7.23,24.47,7.69,4.66,0,6.99-1.12,6.99-3.36s-2.42-3.4-7.27-3.78c-3.64-.09-7.09-.56-10.35-1.4-3.26-.84-6.41-2.1-9.44-3.78-3.03-1.68-5.43-4.01-7.2-6.99-1.77-2.98-2.66-6.48-2.66-10.49,0-7.74,3.05-13.45,9.16-17.13,6.1-3.68,13.68-5.52,22.72-5.52,11.37,0,20.79,2.8,28.25,8.39l-10.91,15.38c-1.87-1.21-4.52-2.24-7.97-3.08-3.45-.84-6.57-1.21-9.37-1.12-4.1,0-6.15,1.12-6.15,3.36s1.72,3.26,5.17,3.36c21.16,.65,31.74,8.25,31.74,22.79,0,5.41-1.56,9.93-4.68,13.56-3.12,3.64-7.02,6.2-11.68,7.69-4.66,1.49-9.93,2.24-15.8,2.24s-12.31-.82-18.46-2.45c-6.15-1.63-11.14-3.85-14.96-6.64Z"/>
    </g>
  </g>
</svg>