<?xml version="1.0" encoding="UTF-8"?>
<svg id="Camada_2" data-name="Camada 2" xmlns="http://www.w3.org/2000/svg" viewBox="0 0 2170 616.88">
  <defs>
    <style>
      .cls-1 {
        fill: #1d1d1b;
      }
    </style>
  </defs>
  <path class="cls-1" d="M273.13,165.67l59.84,103.65c-4.15,3.19-8.12,6.66-11.89,10.43-22.63,22.63-35.09,52.71-35.09,84.72,0,32,12.46,62.09,35.09,84.72,22.63,22.63,52.71,35.09,84.72,35.09,0,0,0,0,0,0,16.28,0,31.81-3.27,45.97-9.18l59.85,103.67h26.85s59.85-103.67,59.85-103.67c14.16,5.91,29.69,9.18,45.97,9.18,0,0,0,0,0,0,32,0,62.09-12.46,84.72-35.09,22.63-22.63,35.09-52.71,35.09-84.72,0-32-12.46-62.09-35.09-84.72-3.76-3.76-7.74-7.24-11.89-10.43l59.84-103.65-13.42-23.25h-119.69c-7.62-58.77-58-104.31-118.81-104.31h0c-32,0-62.09,12.46-84.71,35.09-18.93,18.93-30.74,43.09-34.1,69.22h-119.68s-13.42,23.25-13.42,23.25Zm132.67,287.61c-23.72,0-46.02-9.24-62.8-26.01-16.77-16.77-26.01-39.08-26.01-62.8,0-23.72,9.24-46.02,26.01-62.8,1.82-1.82,3.71-3.53,5.66-5.17l87.46,151.48c-9.59,3.48-19.82,5.29-30.32,5.29Zm119.25-175.55h0c17.28,0,34-3.64,49.3-10.55-5.2,3.76-10.14,7.95-14.76,12.57-19.86,19.86-31.89,45.46-34.53,73.06-2.65-27.6-14.67-53.2-34.53-73.06-4.62-4.62-9.56-8.82-14.76-12.57,15.29,6.91,32.01,10.55,49.29,10.55Zm-62.8-57.01c-13.06-13.06-21.52-29.47-24.64-47.3h174.88c-3.12,17.82-11.59,34.24-24.65,47.3-16.77,16.77-39.08,26.01-62.8,26.01-23.72,0-46.02-9.24-62.8-26.01Zm119.25,206.55c-16.77-16.77-26.01-39.08-26.01-62.8,0-23.72,9.24-46.02,26.01-62.8,16.77-16.77,39.08-26.01,62.8-26.01,10.5,0,20.73,1.82,30.32,5.29l-87.46,151.48c-1.94-1.64-3.84-3.35-5.66-5.17Zm-86.89-62.8c0,23.72-9.24,46.02-26.01,62.8-1.82,1.82-3.71,3.53-5.66,5.17l-87.46-151.48c9.59-3.48,19.81-5.29,30.32-5.29,23.72,0,46.02,9.24,62.8,26.01,16.77,16.77,26.01,39.08,26.01,62.8Zm30.44,175.55l-46.45-80.46c25.69-19.71,43.19-49.58,46.45-83.54,3.26,33.97,20.77,63.83,46.45,83.54l-46.45,80.46Zm182.05-238.34c16.77,16.77,26.01,39.08,26.01,62.8,0,23.72-9.24,46.02-26.01,62.8-16.77,16.77-39.08,26.01-62.8,26.01-10.5,0-20.73-1.82-30.32-5.29l87.46-151.48c1.94,1.64,3.84,3.35,5.66,5.17Zm-16.79-47.89c-14.39-5.98-29.96-9.12-46.01-9.12h0c-17.28,0-34,3.64-49.3,10.55,5.2-3.76,10.14-7.95,14.76-12.57,18.93-18.93,30.74-43.09,34.1-69.22h92.84s-46.39,80.36-46.39,80.36ZM462.26,95.12c16.77-16.77,39.08-26.01,62.8-26.01,23.72,0,46.02,9.24,62.8,26.01,13.06,13.06,21.52,29.47,24.64,47.3h-174.88c3.12-17.82,11.59-34.24,24.65-47.3Zm-56.02,78.3c3.35,26.13,15.16,50.28,34.1,69.22,4.62,4.62,9.56,8.82,14.76,12.57-15.29-6.91-32.01-10.55-49.29-10.55h0c-16.05,0-31.62,3.14-46.01,9.12l-46.39-80.36h92.84Z"/>
  <g>
    <g>
      <path class="cls-1" d="M982.73,303.85l-10.81-25.44h-76.11l-10.81,25.44h-35.62l66.57-148.4h36.04l66.57,148.4h-35.83Zm-23.32-54.7l-25.44-60.21-25.65,60.21h51.09Z"/>
      <path class="cls-1" d="M1030.64,199.33h28.41l2.33,11.45c6.64-9.33,15.97-13.99,27.98-13.99,9.89,0,18.44,3.18,25.65,9.54l-12.72,24.17c-4.95-3.53-10.53-5.3-16.75-5.3-6.93,0-12.72,2.16-17.38,6.47-4.66,4.31-7,10.21-7,17.7v54.48h-30.53v-104.52Z"/>
      <path class="cls-1" d="M1137.91,173.89l30.53-3.39v29.26h26.5v25.44h-26.71v39.43c0,9.33,3.96,13.99,11.87,13.99,5.09,0,9.33-.85,12.72-2.54l7,25.44c-6.93,2.68-14.28,4.24-22.05,4.66-12.3,.56-22.01-2.37-29.15-8.8-7.14-6.43-10.71-17.35-10.71-32.75v-39.43h-18.66v-25.44h18.66v-25.86Z"/>
      <path class="cls-1" d="M1215.71,155.45h30.74v56.6c7.49-9.75,18.09-14.63,31.8-14.63,27.84,0,41.76,16.75,41.76,50.24v56.18h-30.53v-55.97c0-7.21-1.8-12.79-5.41-16.75-3.6-3.96-8.45-5.94-14.52-5.94-6.65,0-12.19,2.26-16.64,6.78-4.45,4.53-6.68,10.81-6.68,18.87v53h-30.53V155.45Z"/>
      <path class="cls-1" d="M1342.91,199.12h30.74v55.33c0,16.25,7.21,24.38,21.62,24.38,6.92,.14,12.61-2.33,17.07-7.42,4.45-5.09,6.68-11.16,6.68-18.23v-54.06h30.1v104.73h-27.56l-1.06-13.78c-8.06,10.88-19.37,16.18-33.92,15.9-29.12,0-43.67-17.1-43.67-51.3v-55.54Z"/>
      <path class="cls-1" d="M1474.99,199.33h28.41l2.33,11.45c6.64-9.33,15.97-13.99,27.98-13.99,9.89,0,18.44,3.18,25.65,9.54l-12.72,24.17c-4.95-3.53-10.53-5.3-16.75-5.3-6.93,0-12.72,2.16-17.38,6.47-4.66,4.31-7,10.21-7,17.7v54.48h-30.53v-104.52Z"/>
    </g>
    <g>
      <path class="cls-1" d="M998.42,509.7v2.54h-36.68l-37.95-48.76h-23.96v48.76h-33.07v-148.4h70.38c17.1,0,30.53,4.88,40.28,14.63,9.75,9.75,14.63,21.55,14.63,35.4-.14,11.02-2.62,20.39-7.42,28.09-4.81,7.71-13.78,13.89-26.92,18.55l40.7,49.18Zm-61.27-117.45h-37.31v43.25h37.74c7.07,0,12.47-2.12,16.22-6.36,3.74-4.24,5.62-9.04,5.62-14.42-.14-5.79-2.12-10.99-5.94-15.58-3.82-4.59-9.26-6.89-16.32-6.89Z"/>
      <path class="cls-1" d="M1062.87,514.58c-17.38,0-31.27-5.05-41.66-15.16-10.39-10.1-15.58-23.21-15.58-39.33s5.26-29.11,15.79-39.43c10.53-10.32,24.34-15.48,41.45-15.48s31.13,5.16,41.66,15.48c10.53,10.32,15.79,23.46,15.79,39.43s-5.19,29.22-15.58,39.33c-10.39,10.11-24.35,15.16-41.87,15.16Zm0-27.14c8.76,0,15.37-2.65,19.82-7.95s6.68-11.77,6.68-19.4-2.26-13.78-6.78-19.29c-4.53-5.51-11.1-8.27-19.72-8.27s-14.98,2.76-19.5,8.27c-4.52,5.51-6.78,11.95-6.78,19.29s2.23,13.75,6.68,19.19c4.45,5.44,10.99,8.16,19.61,8.16Z"/>
      <path class="cls-1" d="M1219.11,364.06h30.74v148.19h-27.35l-1.91-13.36c-7.92,10.18-19.5,15.26-34.77,15.26s-27.88-4.98-37.42-14.95-14.31-23.07-14.31-39.33,4.8-29.92,14.42-39.75c9.61-9.82,22.19-14.73,37.74-14.73,13.85,0,24.8,4.95,32.86,14.84v-56.18Zm-28.62,68.9c-7.77,0-13.99,2.51-18.66,7.53-4.66,5.02-7,11.48-7,19.4s2.29,14.2,6.89,19.29c4.59,5.09,10.84,7.63,18.76,7.63s14.42-2.19,19.93-6.57c5.51-4.38,8.27-11.16,8.27-20.35,0-8.34-2.83-14.91-8.48-19.72-5.65-4.8-12.23-7.21-19.72-7.21Z"/>
      <path class="cls-1" d="M1275.71,407.73h28.41l2.33,11.45c6.64-9.33,15.97-13.99,27.98-13.99,9.89,0,18.44,3.18,25.65,9.54l-12.72,24.17c-4.95-3.53-10.53-5.3-16.75-5.3-6.93,0-12.72,2.16-17.38,6.47-4.66,4.31-7,10.21-7,17.7v54.48h-30.53v-104.52Z"/>
      <path class="cls-1" d="M1375.25,392.47c-3.6-3.11-5.41-7.35-5.41-12.72s1.8-9.61,5.41-12.72c3.6-3.11,7.6-4.66,11.98-4.66s8.37,1.56,11.98,4.66c3.6,3.11,5.41,7.35,5.41,12.72s-1.8,9.61-5.41,12.72c-3.6,3.11-7.6,4.66-11.98,4.66s-8.37-1.55-11.98-4.66Zm27.24,14.84h-30.53v104.94h30.53v-104.94Z"/>
      <path class="cls-1" d="M1423.9,526.66h28.41c.99,14.13,9.75,21.2,26.29,21.2,7.21,0,13.32-1.66,18.34-4.98,5.02-3.32,7.53-8.09,7.53-14.31,0-12.01-8.48-18.02-25.44-18.02s-30.99-4.77-41.23-14.31c-10.25-9.54-15.37-22.37-15.37-38.48,0-16.96,5.51-30.1,16.54-39.43,11.02-9.33,24.38-13.99,40.07-13.99,10.88,0,19.08,1.91,24.59,5.72l11.45-14.84,22.05,16.96-13.36,15.9c7.63,9.19,11.24,19.22,10.81,30.1-.42,16.96-7.92,29.19-22.47,36.68,15.55,6.93,23.32,18.16,23.32,33.71,0,14.7-5.58,26.08-16.75,34.13-11.17,8.06-24.52,12.08-40.07,12.08-17.95,0-31.62-4.21-41.02-12.61-9.4-8.41-13.96-20.25-13.67-35.51Zm55.12-95.19c-8.06,0-14.59,2.33-19.61,7-5.02,4.66-7.53,11.1-7.53,19.29,0,7.49,2.58,13.54,7.74,18.13,5.16,4.59,11.62,6.89,19.4,6.89,7.35,0,13.57-2.19,18.66-6.57,5.09-4.38,7.63-10.53,7.63-18.44,0-7.35-2.51-13.57-7.53-18.66-5.02-5.09-11.27-7.63-18.76-7.63Z"/>
      <path class="cls-1" d="M1555.34,407.52h30.74v55.33c0,16.25,7.21,24.38,21.62,24.38,6.92,.14,12.61-2.33,17.07-7.42,4.45-5.09,6.68-11.16,6.68-18.23v-54.06h30.1v104.73h-27.56l-1.06-13.78c-8.06,10.88-19.37,16.18-33.92,15.9-29.12,0-43.67-17.1-43.67-51.3v-55.54Z"/>
      <path class="cls-1" d="M1789.39,469.85h-76.96c.85,5.37,3.74,9.79,8.69,13.25,4.95,3.46,11.52,5.19,19.72,5.19,11.73,0,20.78-2.76,27.14-8.27l17.17,19.08c-10.46,10.32-25.44,15.48-44.94,15.48s-33.11-5.02-43.35-15.05c-10.25-10.03-15.37-23.6-15.37-40.7,0-16.11,5.01-29.15,15.05-39.11,10.03-9.96,23.53-14.95,40.49-14.95,18.51,0,32.68,5.66,42.51,16.96,9.82,11.31,13.11,27.35,9.86,48.12Zm-76.96-22.26h49.61c-.28-5.37-2.83-9.5-7.63-12.4-4.81-2.9-10.6-4.35-17.38-4.35-6.08,0-11.31,1.48-15.69,4.45-4.38,2.97-7.35,7.07-8.9,12.3Z"/>
      <path class="cls-1" d="M1890.72,418.12l-15.05,19.08c-7.21-5.09-15.48-7.63-24.8-7.63-4.81,0-8.52,.78-11.13,2.33-2.62,1.56-3.92,3.68-3.92,6.36,0,5.8,5.16,8.83,15.48,9.12,4.66,.14,8.87,.46,12.61,.95,3.74,.5,7.77,1.48,12.08,2.97,4.31,1.48,7.88,3.36,10.71,5.62,2.83,2.26,5.23,5.48,7.21,9.65,1.98,4.17,2.97,9.01,2.97,14.52,.14,9.61-3.6,17.88-11.24,24.8-7.63,6.92-19.15,10.39-34.56,10.39-18.52,0-34.91-5.94-49.18-17.81l13.14-21.62c10.31,8.48,22.47,12.86,36.46,13.14,4.52,.14,8.3-.64,11.34-2.33,3.04-1.7,4.49-3.89,4.35-6.57,0-5.79-5.94-8.9-17.81-9.33-5.23-.28-10.28-1.02-15.16-2.23-4.88-1.2-9.54-3.04-13.99-5.51-4.45-2.47-8.02-5.94-10.71-10.39-2.69-4.45-4.03-9.57-4.03-15.37,0-11.16,4.38-19.57,13.14-25.23,8.76-5.65,19.43-8.48,32.01-8.48,16.25,0,29.61,4.53,40.07,13.57Z"/>
    </g>
  </g>
</svg>